<?xml version="1.0" encoding="UTF-8"?>
<!DOCTYPE svg PUBLIC "-//W3C//DTD SVG 1.1//EN" "http://www.w3.org/Graphics/SVG/1.1/DTD/svg11.dtd">
<svg version="1.1" xmlns="http://www.w3.org/2000/svg" xmlns:xlink="http://www.w3.org/1999/xlink" x="0" y="0" width="37.552" height="50" viewBox="0, 0, 37.552, 50">
  <g id="Layer_1">
    <g>
      <path d="M34.113,1.839 C35.256,2.041 34.847,1.784 35.463,2.37 C35.878,2.964 35.733,3.781 35.14,4.196 L5.45,24.979 L35.14,45.762 C35.733,46.177 35.878,46.994 35.463,47.588 C35.047,48.182 34.229,48.325 33.636,47.91 L2.411,26.053 C1.666,25.532 1.666,24.427 2.411,23.904 L33.636,2.048 L34.113,1.839 z" fill="#727272"/>
      <path d="M33.894,0 L34.436,0.015 C34.644,0.052 35.278,0.116 35.503,0.182 C35.883,0.292 36.152,0.468 36.414,0.712 C36.465,0.759 36.671,0.963 36.74,1.028 C36.829,1.114 36.91,1.208 36.981,1.309 C37.981,2.74 37.633,4.71 36.203,5.714 L8.68,24.979 L36.203,44.244 C37.633,45.246 37.982,47.218 36.98,48.651 C35.977,50.082 34.005,50.43 32.574,49.428 L1.35,27.571 C-0.45,26.312 -0.45,23.647 1.349,22.387 L32.574,0.53 C32.675,0.46 32.782,0.399 32.895,0.35 L33.372,0.142 L33.894,0 z" fill="#727272"/>
    </g>
  </g>
</svg>
